# xmcd
#
# Track frame offsets:
#	150
#	10827
#	22842
#	34610
#	51847
#	64410
#	76242
#	86920
#	99487
#	110782
#	122830
#	137045
#	149792
#	162445
#	175022
#	185282
#	196485
#	208017
#	221617
#	235957
#	248395
#	258977
#	270822
#	285907
#
# Disc length: 4016 seconds
#
# Revision: 1
# Processed by: cddbd v1.5.1PL0 Copyright (c) Steve Scherf et al.
# Submitted via: audiograbber 1.83.01
#
DISCID=520fae18
DTITLE=Wilf Carter - The Golden Years
DYEAR=1900
DGENRE=
TTITLE0=There's A Bluebird On Your Window-Sill
TTITLE1=This Ole House
TTITLE2=It's No Secret
TTITLE3=Hold On Little Dogie, Hold On
TTITLE4=My Nova Scotia Home
TTITLE5=When It's Apple Blossom Time In Annapolis Valley
TTITLE6=You Are My Sunshine
TTITLE7=When It's Springtime In The Rockies
TTITLE8=Beautiful Brown Eyes
TTITLE9=Goodnight Irene
TTITLE10=Yellow Rose Of Texas
TTITLE11=The Old Rugged Cross
TTITLE12=Nobody's Darlin' But Mine
TTITLE13=Blue Canadian Rockies
TTITLE14=Red Wing
TTITLE15=The Yodelling Swiss
TTITLE16=My Little Two Acre Farm
TTITLE17=There's A Love Knot In My Lariat
TTITLE18=My Swiss Moonlight Lullaby
TTITLE19=It Makes No Difference Now
TTITLE20=Mockin' Bird Hill
TTITLE21=Shoo Shoo Shoo Sha-La-La
TTITLE22=He'll Have To Go
TTITLE23=The Pub With No Beer
EXTD=
EXTT0=
EXTT1=
EXTT2=
EXTT3=
EXTT4=
EXTT5=
EXTT6=
EXTT7=
EXTT8=
EXTT9=
EXTT10=
EXTT11=
EXTT12=
EXTT13=
EXTT14=
EXTT15=
EXTT16=
EXTT17=
EXTT18=
EXTT19=
EXTT20=
EXTT21=
EXTT22=
EXTT23=
PLAYORDER=
